<svg width="18" height="19" viewBox="0 0 18 19" fill="none" xmlns="http://www.w3.org/2000/svg">
<path fill-rule="evenodd" clip-rule="evenodd" d="M17.64 9.70468C17.64 9.0665 17.5827 8.45286 17.4764 7.86377H9V11.3451H13.8436C13.635 12.4701 13.0009 13.4233 12.0477 14.0615V16.3197H14.9564C16.6582 14.7529 17.64 12.4456 17.64 9.70468Z" fill="#4285F4"/>
<path fill-rule="evenodd" clip-rule="evenodd" d="M9 18.5C11.43 18.5 13.4673 17.6941 14.9564 16.3195L12.0477 14.0613C11.2418 14.6013 10.2109 14.9204 9 14.9204C6.65591 14.9204 4.67182 13.3372 3.96409 11.21H0.957275V13.5418C2.43818 16.4831 5.48182 18.5 9 18.5Z" fill="#34A853"/>
<path fill-rule="evenodd" clip-rule="evenodd" d="M3.96409 11.2098C3.78409 10.6698 3.68182 10.093 3.68182 9.49983C3.68182 8.90664 3.78409 8.32983 3.96409 7.78983V5.45801H0.957273C0.347727 6.67301 0 8.04755 0 9.49983C0 10.9521 0.347727 12.3266 0.957273 13.5416L3.96409 11.2098Z" fill="#FBBC05"/>
<path fill-rule="evenodd" clip-rule="evenodd" d="M9 4.07955C10.3214 4.07955 11.5077 4.53364 12.4405 5.42545L15.0218 2.84409C13.4632 1.39182 11.4259 0.5 9 0.5C5.48182 0.5 2.43818 2.51682 0.957275 5.45818L3.96409 7.79C4.67182 5.66273 6.65591 4.07955 9 4.07955Z" fill="#EA4335"/>
</svg>
